# xmcd
#
# Track frame offsets:
#   150
#   18316
#   31169
#   45354
#   62325
#   77402
#   89822
#   103672
#   121711
#   138508
#   154302
#   177956
#   191126
#   204870
#   219533
#   236014
#   252145
#   267312
#   280420
#   294574
#   309745
#   324665
#   336280
#
# Disc length: 4669 seconds
#
# Revision: 0
# Processed by: cddbd v1.5.2PL0 Copyright (c) Steve Scherf et al.
# Submitted via: uFREEDB ActiveX Control 1.5
#
DISCID=4c123b17
DTITLE=maria cecilia e rodolfo - maria cecilia e rodolfo
DYEAR=1900
DGENRE=Country
TTITLE0=faixa 1
TTITLE1=faixa 2
TTITLE2=faixa 3
TTITLE3=faixa 4
TTITLE4=faixa 5
TTITLE5=faixa 6
TTITLE6=faixa 7
TTITLE7=faixa 8
TTITLE8=faixa 9
TTITLE9=faixa 10
TTITLE10=faixa 11
TTITLE11=faixa 12
TTITLE12=faixa 13
TTITLE13=faixa 14
TTITLE14=faixa 15
TTITLE15=faixa 16
TTITLE16=faixa 17
TTITLE17=faixa 18
TTITLE18=faixa 19
TTITLE19=faixa 20
TTITLE20=faixa 21
TTITLE21=faixa 22
TTITLE22=faixa 23
EXTD=
EXTT0=
EXTT1=
EXTT2=
EXTT3=
EXTT4=
EXTT5=
EXTT6=
EXTT7=
EXTT8=
EXTT9=
EXTT10=
EXTT11=
EXTT12=
EXTT13=
EXTT14=
EXTT15=
EXTT16=
EXTT17=
EXTT18=
EXTT19=
EXTT20=
EXTT21=
EXTT22=
PLAYORDER=
